<svg xmlns="http://www.w3.org/2000/svg" display="none">
    <symbol id="double-arrows" viewBox="0 0 22 22">
        <svg>
            <g clip-path="url(#clip0)">
                <path d="M21.4586 9.69499L12.3074 0.543724C11.5856 -0.178047 10.415 -0.178047 9.69325 0.543724C8.97148 1.26549 8.97148 2.43609 9.69325 3.15786L17.5366 11.0011L9.69325 18.8444C8.97148 19.5662 8.97148 20.7368 9.69325 21.4585C10.415 22.1803 11.5856 22.1803 12.3074 21.4585L21.4586 12.3073C22.1804 11.5873 22.1804 10.4168 21.4586 9.69499ZM10.4553 9.14084L3.19002 1.48351C2.45998 0.715045 1.27752 0.715045 0.547483 1.48351C-0.182555 2.25198 -0.182555 3.4986 0.547483 4.268L6.492 10.5331L0.547483 16.7982C-0.182555 17.5667 -0.182555 18.8142 0.547483 19.5827C1.27752 20.3512 2.45998 20.3512 3.19002 19.5827L10.4553 11.9253C11.1854 11.1569 11.1854 9.91024 10.4553 9.14084Z"/>
            </g>
            <defs>
                <clipPath id="clip0">
                    <rect fill="white"/>
                </clipPath>
            </defs>
        </svg>
    </symbol>
    <symbol id="edit" viewBox="0 0 16 16">
        <svg>
            <path d="M13.7735 1.09865C12.9671 0.293636 11.6612 0.293636 10.8547 1.09865L10.1241 1.83328L2.34659 9.60665L2.33006 9.62331C2.32606 9.62731 2.32606 9.63157 2.3218 9.63157C2.31353 9.64397 2.30114 9.65624 2.293 9.66864C2.293 9.67277 2.28874 9.67277 2.28874 9.6769C2.28048 9.6893 2.27647 9.69756 2.26808 9.70996C2.26408 9.71409 2.26408 9.71809 2.25994 9.72235C2.25581 9.73475 2.25168 9.74302 2.24742 9.75541C2.24742 9.75942 2.24342 9.75942 2.24342 9.76368L0.517821 14.9527C0.467201 15.1005 0.505683 15.2641 0.616865 15.3737C0.69499 15.4508 0.800362 15.4939 0.909996 15.4935C0.954804 15.4928 0.999226 15.4858 1.0421 15.4729L6.22714 13.7431C6.23115 13.7431 6.23115 13.7431 6.23541 13.7391C6.24845 13.7353 6.26098 13.7297 6.27247 13.7225C6.2757 13.7221 6.27854 13.7207 6.28086 13.7185C6.29313 13.7102 6.30966 13.7018 6.32206 13.6936C6.33432 13.6854 6.34685 13.673 6.35925 13.6648C6.36338 13.6605 6.36738 13.6605 6.36738 13.6565C6.37164 13.6524 6.37991 13.6484 6.38404 13.64L14.8922 5.13183C15.6972 4.3254 15.6972 3.01949 14.8922 2.21319L13.7735 1.09865ZM6.09504 12.773L3.22185 9.89991L10.4131 2.70867L13.2863 5.58173L6.09504 12.773ZM2.81715 10.6636L5.32722 13.1735L1.55811 14.4284L2.81715 10.6636ZM14.3102 4.55384L13.8725 4.9956L10.9992 2.12228L11.4411 1.68064C11.9245 1.19769 12.7079 1.19769 13.1914 1.68064L14.3142 2.80345C14.7939 3.28899 14.7921 4.07062 14.3102 4.55384Z"/>
        </svg>
    </symbol>
    <symbol id="delete" viewBox="0 0 16 16">
        <svg>
            <g clip-path="url(#clip0)">
                <path d="M10.207 5.79683C10 5.79683 9.83226 5.96457 9.83226 6.17154V13.2535C9.83226 13.4603 10 13.6282 10.207 13.6282C10.4139 13.6282 10.5817 13.4603 10.5817 13.2535V6.17154C10.5817 5.96457 10.4139 5.79683 10.207 5.79683Z"
                />
                <path d="M5.78543 5.79683C5.57846 5.79683 5.41072 5.96457 5.41072 6.17154V13.2535C5.41072 13.4603 5.57846 13.6282 5.78543 13.6282C5.99239 13.6282 6.16013 13.4603 6.16013 13.2535V6.17154C6.16013 5.96457 5.99239 5.79683 5.78543 5.79683Z"
                />
                <path d="M2.56296 4.76331V13.9953C2.56296 14.5409 2.76304 15.0534 3.11257 15.4211C3.46049 15.7898 3.94468 15.9991 4.45142 16H11.541C12.0478 15.9991 12.532 15.7898 12.8798 15.4211C13.2293 15.0534 13.4294 14.5409 13.4294 13.9953V4.76331C14.1242 4.57888 14.5745 3.90763 14.4815 3.19467C14.3884 2.48185 13.7812 1.94862 13.0622 1.94847H11.1437V1.48009C11.1459 1.08621 10.9902 0.707993 10.7113 0.429744C10.4325 0.151642 10.0537 -0.00321667 9.65983 3.45694e-06H6.33256C5.93868 -0.00321667 5.55987 0.151642 5.28104 0.429744C5.0022 0.707993 4.84647 1.08621 4.84866 1.48009V1.94847H2.9302C2.21123 1.94862 1.60394 2.48185 1.51085 3.19467C1.41791 3.90763 1.86814 4.57888 2.56296 4.76331V4.76331ZM11.541 15.2505H4.45142C3.81076 15.2505 3.31237 14.7002 3.31237 13.9953V4.79624H12.68V13.9953C12.68 14.7002 12.1816 15.2505 11.541 15.2505ZM5.59808 1.48009C5.59559 1.28498 5.67228 1.09719 5.81075 0.959456C5.94907 0.821722 6.1373 0.746049 6.33256 0.749416H9.65983C9.85509 0.746049 10.0433 0.821722 10.1816 0.959456C10.3201 1.09704 10.3968 1.28498 10.3943 1.48009V1.94847H5.59808V1.48009ZM2.9302 2.69789H13.0622C13.4347 2.69789 13.7367 2.99985 13.7367 3.37236C13.7367 3.74487 13.4347 4.04683 13.0622 4.04683H2.9302C2.55769 4.04683 2.25573 3.74487 2.25573 3.37236C2.25573 2.99985 2.55769 2.69789 2.9302 2.69789V2.69789Z"/>
                <path d="M7.9962 5.79683C7.78923 5.79683 7.62149 5.96457 7.62149 6.17154V13.2535C7.62149 13.4603 7.78923 13.6282 7.9962 13.6282C8.20316 13.6282 8.3709 13.4603 8.3709 13.2535V6.17154C8.3709 5.96457 8.20316 5.79683 7.9962 5.79683Z"/>
            </g>
            <defs>
                <clipPath id="clip0">
                    <rect width="16" height="16" fill="white"/>
                </clipPath>
            </defs>
        </svg>
    </symbol>
    <symbol id="cancel" viewBox="0 0 24 24">
        <svg>
            <g clip-path="url(#clip0)">
                <path d="M14.1988 12.0197L23.5439 2.67424C24.1521 2.06636 24.1521 1.0835 23.5439 0.475625C22.936 -0.132256 21.9532 -0.132256 21.3453 0.475625L11.9999 9.82104L2.65474 0.475625C2.04658 -0.132256 1.064 -0.132256 0.456124 0.475625C-0.152041 1.0835 -0.152041 2.06636 0.456124 2.67424L9.80125 12.0197L0.456124 21.3651C-0.152041 21.9729 -0.152041 22.9558 0.456124 23.5637C0.759068 23.8669 1.15739 24.0192 1.55543 24.0192C1.95347 24.0192 2.35152 23.8669 2.65474 23.5637L11.9999 14.2183L21.3453 23.5637C21.6485 23.8669 22.0466 24.0192 22.4446 24.0192C22.8426 24.0192 23.2407 23.8669 23.5439 23.5637C24.1521 22.9558 24.1521 21.9729 23.5439 21.3651L14.1988 12.0197Z"/>
            </g>
            <defs>
                <clipPath id="clip0">
                    <rect width="24" height="24" fill="white"/>
                </clipPath>
            </defs>
        </svg>
    </symbol>
    <symbol id="confirm" viewBox="0 0 24 24">
        <svg>
            <g clip-path="url(#clip0)">
                <path d="M23.6485 3.53889C23.1799 3.07023 22.4202 3.07023 21.9515 3.53889L7.57472 17.9158L2.04853 12.3896C1.57992 11.9209 0.820173 11.921 0.351469 12.3896C-0.117187 12.8582 -0.117187 13.6179 0.351469 14.0866L6.72619 20.4612C7.19466 20.9298 7.95497 20.9295 8.42325 20.4612L23.6485 5.23595C24.1172 4.76734 24.1171 4.00754 23.6485 3.53889Z"/>
            </g>
            <defs>
                <clipPath id="clip0">
                    <rect width="24" height="24" fill="white"/>
                </clipPath>
            </defs>
        </svg>
    </symbol>
</svg>
